<?xml version="1.0" encoding="utf-8"?>
<!-- Generator: Adobe Illustrator 16.0.0, SVG Export Plug-In . SVG Version: 6.00 Build 0)  -->
<!DOCTYPE svg PUBLIC "-//W3C//DTD SVG 1.1//EN" "http://www.w3.org/Graphics/SVG/1.1/DTD/svg11.dtd">
<svg version="1.1" id="Layer_1" xmlns="http://www.w3.org/2000/svg" xmlns:xlink="http://www.w3.org/1999/xlink" x="0px" y="0px"
	 width="369.2px" height="708.7px" viewBox="0 0 369.2 708.7" style="enable-background:new 0 0 369.2 708.7;" xml:space="preserve"
	>
<style type="text/css">
<![CDATA[
	.st0{fill:#1ABC9C;}
]]>
</style>
<path class="st0" d="M312.2,27.1c0,0-19.1-6.2-36-5.6c0,0-0.8-4.8-8.3-5.4c-7.5-0.5-20.4-4.8-31.5-4.6c-11,0.3-20.4,3-20.4,3
	s-9.7-9.9-22.3-9.4C181,5.6,159,11.8,159,11.8s7,0.3,9.7,3.8c2.7,3.5-25.8,0.8-32.3,3.5c-6.5,2.7-19.1,15.9-19.1,15.9
	s-19.9,6.7-21.8,7.3C93.6,42.7,57.1,67.5,56,71.8c-1.1,4.3,2.4-2.2,6.2,2.2c3.8,4.3-8.9,11.3-9.7,11.6c0,0-37.9,13.7-43.3,48.9
	s6.5,94.1,11.3,99.2c4.8,5.1-11-35.5-7.8-56.5c0,0,2.4,37.9,12.4,48.4c5.3,5.6,3.1-0.8,1.2-13c-1.6-10.6-2.9-25.6,1.2-41
	c8.9-33.1,5.1,48.7,11.8,64c0,0,6.2,22.3-5.9,36.8c-12.1,14.5-39.5,38.2-12.6,51.9c0,0,11.8,3.8,4.3,11.8c0,0-18.6,13-1.3,20.9
	c0,0,9.9,0.9,6.5,5.2c-3.5,4.3-1.3,14.8,7.8,22.6c0,0,9.9-3.2,10.2,26.1c0,0,4.8,32.8,30.1,22c25.3-10.8,55.7-24.5,64.8-8.3
	c0,0,9.9,65.9,5.6,71.2c-4.3,5.4-25,4-24.7,16.1c0.3,12.1,10.2,27.7,10.5,33.3c0.3,5.6-8.9,26.1-20.4,32.3
	c-11.6,6.2-23.9,7.8-30.4,22c-6.5,14.2-11,36.8-23.7,44.4c-12.6,7.5-39.3,36.8-43.6,45.4C12.2,697.9,0,708.7,0,708.7h369.2v-176
	c-6.4-3.2-13.4-7.8-20.1-14.9c-19-20.4-24-36.1-27.2-36.1c-3.2,0-14.7,0-14.7,0s-19.4-41.7-2.2-45.3c0,0,5.7,4.2,9.3,4.9
	c0.6,0.1,0.8-0.3,0.8-1.2c0-3.4-3-13.3-3.1-24.4c0-4.7,0.4-9.5,1.9-14.2c0,0,5.6,13.7,11.5,27.3l0.6-8.2c-3.1-9-5.5-18-5.3-24
	c0-0.4,0-0.8,0.1-1.2c1.4-15.8,5.7,18.6,5.7,18.6v0v0l-0.5,6.5c0.5,1.6,1.1,3.1,1.7,4.7l3.5-11.2l3.6,11.1c0,0,2.9,11.5,5.4,11.8
	s0.7-38.4,0.7-38.4l4.4-8.5c0,0,0.4,14.1,3.1,15.3c2.7,1.2-1.7-19.4-1.7-19.4l2.4-11.3l6.5,30.6l-1.6-27l7.1,18.8l4.4,6.5l1.9-4.8
	l-7.9-33.2c0,0,0.3-8.5,1.7-16.3c1.5-7.8,6.6-14.7,6.6-14.7s-6,19-5.6,23.5c0.4,4.6,1.3,20.2,1.3,20.2s1.5-28.5,4-31.9
	c0.6-0.8,1.2,0.8,1.8,3.7V94.2C355.3,66.9,336.7,40.4,312.2,27.1z"/>
</svg>
