<?xml version="1.0" encoding="utf-8"?>
<!-- Generator: Adobe Illustrator 16.0.0, SVG Export Plug-In . SVG Version: 6.00 Build 0)  -->
<!DOCTYPE svg PUBLIC "-//W3C//DTD SVG 1.1//EN" "http://www.w3.org/Graphics/SVG/1.1/DTD/svg11.dtd">
<svg version="1.1" id="Layer_2" xmlns="http://www.w3.org/2000/svg" xmlns:xlink="http://www.w3.org/1999/xlink" x="0px" y="0px"
	 width="50px" height="50px" viewBox="0 0 50 50" style="enable-background:new 0 0 50 50;" xml:space="preserve">
<style type="text/css">
<![CDATA[
	.st0{fill:#E9573F;}
	.st1{opacity:0.8;}
]]>
</style>
<g class="st1">
	<path class="st0" d="M25.2,7.2c-9.8,0-17.8,8-17.8,17.8c0,9.8,7.9,17.8,17.8,17.8S42.9,34.8,42.9,25C42.9,15.2,35,7.2,25.2,7.2z
		 M32.2,35.2c-1.6,1.4-3.5,2.1-5.8,2.1c-2.1,0-4-0.8-5.5-2.3c-1.6-1.5-2.5-3.9-2.8-7H16c-0.2,0-0.3-0.1-0.3-0.4c0-0.3,0.1-0.6,0.3-1
		s0.4-0.6,0.5-0.6H18v-0.6c0-0.5,0-1.2,0.1-2.1h-2c-0.2,0-0.3-0.1-0.3-0.4c0-0.3,0.1-0.6,0.3-1.1c0.2-0.4,0.4-0.6,0.5-0.6h1.7
		c0.7-5.7,3.4-8.6,8.1-8.6c2.1,0,3.9,0.5,5.4,1.6c1.5,1.1,2.2,2.4,2.2,4c0,0.5-0.2,1-0.5,1.4c-0.4,0.4-0.8,0.6-1.3,0.6
		c-0.6,0-1-0.1-1.2-0.4c-0.3-0.3-0.5-0.7-0.8-1.3c-0.3-0.8-0.7-1.4-1.1-1.8c-0.4-0.4-1.2-0.6-2.3-0.6c-1.2,0-2.1,0.4-2.8,1.3
		c-0.7,0.8-1.1,2.2-1.3,4H28c0.2,0,0.3,0.1,0.3,0.4c0,0.3-0.1,0.7-0.3,1.1c-0.2,0.4-0.4,0.6-0.5,0.6h-4.9l0,1.6c0,0.5,0,0.9,0,1.1
		H28c0.2,0,0.3,0.1,0.3,0.4c0,0.3-0.1,0.7-0.3,1.1c-0.2,0.4-0.4,0.6-0.5,0.6h-4.8c0.4,4,1.7,5.9,3.8,5.9c0.8,0,1.5-0.2,2.2-0.6
		c0.7-0.4,1.3-1.3,1.9-2.7c0.4-0.9,0.7-1.5,1-1.7c0.3-0.2,0.6-0.3,0.9-0.3c0.7,0,1.2,0.2,1.6,0.6c0.4,0.4,0.5,0.9,0.5,1.6
		C34.6,32.3,33.8,33.8,32.2,35.2z"/>
	<path class="st0" d="M25.2,0c-13.8,0-25,11.2-25,25c0,13.8,11.2,25,25,25s25-11.2,25-25C50.2,11.2,39,0,25.2,0z M25.2,44.6
		C14.3,44.6,5.5,35.8,5.5,25S14.3,5.3,25.2,5.3S44.8,14.1,44.8,25S36,44.6,25.2,44.6z"/>
</g>
</svg>
