<?xml version="1.0" encoding="utf-8"?>
<!-- Generator: Adobe Illustrator 16.0.0, SVG Export Plug-In . SVG Version: 6.00 Build 0)  -->
<!DOCTYPE svg PUBLIC "-//W3C//DTD SVG 1.1//EN" "http://www.w3.org/Graphics/SVG/1.1/DTD/svg11.dtd">
<svg version="1.1" id="Layer_1" xmlns="http://www.w3.org/2000/svg" xmlns:xlink="http://www.w3.org/1999/xlink" x="0px" y="0px"
	 width="50px" height="50px" viewBox="0 0 50 50" style="enable-background:new 0 0 50 50;" xml:space="preserve">
<style type="text/css">
<![CDATA[
	.st0{opacity:0.8;fill-rule:evenodd;clip-rule:evenodd;fill:#E9573F;}
]]>
</style>
<path class="st0" d="M38.6,12.7l2.1-2.5l0.9,0.7l1.5-1.5l-4-3.3l-1.5,1.6l1.1,1l-2.3,2.3c-3-1.7-5.1-3.1-9.3-3.5V3.1h1.6
	c1.6,0,1.7-1.5,1.7-1.5c0-1.5-1.7-1.6-1.7-1.6h-7.6c-1.8,0-1.6,1.8-1.6,1.8c0,1.3,1.5,1.3,1.5,1.3h1.6v4.7c-9,0-18.8,9.8-18.8,21.1
	C3.8,40.5,13.3,50,25,50c11.7,0,21-9.5,21-21.1C46,22.4,43.1,16.6,38.6,12.7z M38.1,38.8c-0.1,0.2-2.4-1.5-2.4-1.5l-0.9,1.3
	c0,0,2.1,1.6,1.9,1.8c-2.8,2.8-6.7,4.6-10.9,4.8c-0.1,0,0-3.2,0-3.2l-1.5,0c0,0-0.1,2-0.1,3.2c-3.5-0.2-6.7-1.4-9.3-3.5
	c-0.5-0.4-1-0.9-1.5-1.3c-0.2-0.2,1.7-1.9,1.7-1.9l-1.2-1.3c0,0-1.3,1-2.1,1.4c-2-2.6-3.2-5.7-3.3-9.2c0-0.1,3.1,0,3.1,0l0-1.6
	c0,0-1.8,0-3.2,0.1c0.2-3.3,1.5-6.9,3.4-9.4c0.1-0.1,1.8,1.7,1.8,1.7l1.2-1.7c0,0-1.4-1.2-1.7-1.5c3-3,7.1-4.9,11.7-4.9
	c4.5,0,8.7,1.9,11.7,4.9c-0.5,0.4-2,1.7-2,1.7l1.1,1.4c0,0,2.1-1.7,2.2-1.5c2,2.6,3.2,5.8,3.4,9.2c-0.7,0-3.3,0-3.3,0l0.1,1.6
	c0,0,3.3-0.2,3.2,0C41.2,33.1,40,36.3,38.1,38.8z M25.7,28c0-3.1,0-13.2,0-13.2c0-0.4-0.3-0.8-0.8-0.8c-0.4,0-0.8,0.3-0.8,0.8
	c0,0,0,10.2,0,13.2c0,0-1.6,0.1-1.6,2.4c0,1.3,1,2.3,2.3,2.3s2.4-1,2.4-2.3C27.2,28.2,25.7,28,25.7,28z"/>
</svg>
