<?xml version="1.0" encoding="utf-8"?>
<!-- Generator: Adobe Illustrator 16.0.0, SVG Export Plug-In . SVG Version: 6.00 Build 0)  -->
<!DOCTYPE svg PUBLIC "-//W3C//DTD SVG 1.1//EN" "http://www.w3.org/Graphics/SVG/1.1/DTD/svg11.dtd">
<svg version="1.1" id="Layer_1" xmlns="http://www.w3.org/2000/svg" xmlns:xlink="http://www.w3.org/1999/xlink" x="0px" y="0px"
	 width="400px" height="686.3px" viewBox="0 0 400 686.3" style="enable-background:new 0 0 400 686.3;" xml:space="preserve">
<style type="text/css">
<![CDATA[
	.st0{fill:#F1C40F;}
]]>
</style>
<g>
	<path class="st0" d="M383.2,473.8c0,0-7.4-17.1-5.4-57.7c1.7-34.7,16.3-60,22.3-68.7V45.7c-20-17-33.4-26-32.5-25.6
		c3.4,1.6,20.4,12.3,20.4,12.3S375,18.5,361.8,14.3C348.6,10.1,233.6-3.6,203.6,0.9c-30,4.5-90.1,30.2-90.1,30.2s-9.5,6.7-10.4,7.3
		c-0.8,0.6-5.6,3.6-5.6,3.6s1.7,0.8-0.8,2.8c-2.5,2-50.1,51.8-48.4,50.7s9.2-6.7,9.2-6.7l-13.7,19.3l8.4-7c0,0-7.5,17.2-10.6,24
		c2.7-4,8.3-10.3,6.7-8.1c-2,2.8-9.2,29.1-9.2,29.1s0.3,3.6,1.1,3.4c0.8-0.3,9.5-22.7,9.5-22.7s2.2,5,0.3,11.2
		c-2,6.2-1.4,13.2-1.4,13.2l1.1-2.8l6.2-10.4c0,0-1.4,7.3-3.4,14.3c-2,7-3.6,21-3.6,21S57,156,57,161c0,5-14.6,27.2-12.6,30.5
		s16.8,25.8,14.6,35.8c-2.2,10.1-24.9,34.4-42.8,52.1c-17.9,17.6,6.2,33.3,9.5,35c3.4,1.7,15.7,10.1,16,14
		c0.8,10.6-6.2,6.2-3.1,20.4c3.1,14.3,23,14,24.4,14.3c1.4,0.3,0.8,2,0.8,2s-16.8,10.1-16.8,20.2s14.8,17.6,16.9,19.3
		c2.1,1.7,1.8,7,1.8,7c-1.7,12-4.2,32.8,3,40.9s60.3,2.2,67.3,2.2c7,0,26.6,31.9,24.6,42c-2,10.1,5.3,69.7,5.3,69.7
		c-9,1.4-27.7,35.5-27.7,35.5c-23.2,7.6-69.5,84.2-69.5,84.2H400V487.4C394,484.1,383.2,473.8,383.2,473.8z"/>
</g>
</svg>
