<?xml version="1.0" encoding="utf-8"?>
<!-- Generator: Adobe Illustrator 17.1.0, SVG Export Plug-In . SVG Version: 6.00 Build 0)  -->
<!DOCTYPE svg PUBLIC "-//W3C//DTD SVG 1.1//EN" "http://www.w3.org/Graphics/SVG/1.1/DTD/svg11.dtd">
<svg version="1.1" id="Layer_1" xmlns="http://www.w3.org/2000/svg" xmlns:xlink="http://www.w3.org/1999/xlink" x="0px" y="0px"
	 viewBox="0 0 160 50" enable-background="new 0 0 160 50" xml:space="preserve">
<path id="_x32_32-male" fill-rule="evenodd" clip-rule="evenodd" fill="#BEC3C8" d="M19.4-65.2c2.4,0,4.8-2.3,4.8-4.7
	c0-2.4-2.3-4.8-4.7-4.8c-2.4,0-4.8,2.5-4.8,4.9C14.7-67.4,17-65.2,19.4-65.2z M28.8-58.5c0-2.4,0.2-2.1,0-3.6
	c-0.6-1.8-1.8-2.4-3-2.4c-2.6,0-3.4,0-5.4,0c-2.4,0-3.6,0-6,0c-1.2,0-2-0.1-2.9,0.7c-1.2,1.4-1.1,1.5-1.1,5.3c0,1.9,0,5.2,0,7.3
	c0,1.9-0.3,4.8,1.6,4.8c1.8,0,1.8-1.3,1.8-3.2c0-2.7,0-3.4,0-5c0-1.7-0.1-2,0.3-2c0.4,0,0.4,0,0.4,1.9c0,1.7,0,25.9,0,27.3
	c0,1.2,0.6,2.5,2.4,2.5c1.8,0,2.6-1.1,2.6-2.3c0-2.2,0-11.6,0-12.6c0-1.2,0-1.8,0.3-1.8c0.3,0,0.3,0.6,0.3,1.8c0,1.1,0,10.4,0,12.6
	c0,0.7,0.8,2.4,2.6,2.4c1.2,0,2.3-1.5,2.3-2.3c0-4.8,0-26.2,0-27.7c0-0.8-0.1-1.9,0.2-1.9c0.3,0,0.3,0.3,0.3,1.5c0,1.4,0,2.7,0,4.6
	c0,3.2,0.5,4,1.7,4c1.8,0,1.6-3.1,1.6-4.8C28.8-53.6,28.8-56.1,28.8-58.5z"/>
<path id="_x32_32-male_1_" fill-rule="evenodd" clip-rule="evenodd" fill="#BEC3C8" d="M47.8-65.2c2.4,0,4.8-2.3,4.8-4.7
	c0-2.4-2.3-4.8-4.7-4.8c-2.4,0-4.8,2.5-4.8,4.9C43.1-67.4,45.4-65.2,47.8-65.2z M57.3-58.5c0-2.4,0.2-2.1,0-3.6
	c-0.6-1.8-1.8-2.4-3-2.4c-2.6,0-3.4,0-5.4,0c-2.4,0-3.6,0-6,0c-1.2,0-2-0.1-2.9,0.7c-1.2,1.4-1.1,1.5-1.1,5.3c0,1.9,0,5.2,0,7.3
	c0,1.9-0.3,4.8,1.6,4.8c1.8,0,1.8-1.3,1.8-3.2c0-2.7,0-3.4,0-5c0-1.7-0.1-2,0.3-2c0.4,0,0.4,0,0.4,1.9c0,1.7,0,25.9,0,27.3
	c0,1.2,0.6,2.5,2.4,2.5c1.8,0,2.6-1.1,2.6-2.3c0-2.2,0-11.6,0-12.6c0-1.2,0-1.8,0.3-1.8c0.3,0,0.3,0.6,0.3,1.8c0,1.1,0,10.4,0,12.6
	c0,0.7,0.8,2.4,2.6,2.4c1.2,0,2.3-1.5,2.3-2.3c0-4.8,0-26.2,0-27.7c0-0.8-0.1-1.9,0.2-1.9c0.3,0,0.3,0.3,0.3,1.5c0,1.4,0,2.7,0,4.6
	c0,3.2,0.5,4,1.7,4c1.8,0,1.6-3.1,1.6-4.8C57.3-53.6,57.3-56.1,57.3-58.5z"/>
<path id="_x32_32-male_2_" fill-rule="evenodd" clip-rule="evenodd" fill="#BEC3C8" d="M76.2-65.2c2.4,0,4.8-2.3,4.8-4.7
	c0-2.4-2.3-4.8-4.7-4.8c-2.4,0-4.8,2.5-4.8,4.9C71.6-67.4,73.8-65.2,76.2-65.2z M85.7-58.5c0-2.4,0.2-2.1,0-3.6
	c-0.6-1.8-1.8-2.4-3-2.4c-2.6,0-3.4,0-5.4,0c-2.4,0-3.6,0-6,0c-1.2,0-2-0.1-2.9,0.7c-1.2,1.4-1.1,1.5-1.1,5.3c0,1.9,0,5.2,0,7.3
	c0,1.9-0.3,4.8,1.6,4.8c1.8,0,1.8-1.3,1.8-3.2c0-2.7,0-3.4,0-5c0-1.7-0.1-2,0.3-2c0.4,0,0.4,0,0.4,1.9c0,1.7,0,25.9,0,27.3
	c0,1.2,0.6,2.5,2.4,2.5c1.8,0,2.6-1.1,2.6-2.3c0-2.2,0-11.6,0-12.6c0-1.2,0-1.8,0.3-1.8c0.3,0,0.3,0.6,0.3,1.8c0,1.1,0,10.4,0,12.6
	c0,0.7,0.8,2.4,2.6,2.4c1.2,0,2.3-1.5,2.3-2.3c0-4.8,0-26.2,0-27.7c0-0.8-0.1-1.9,0.2-1.9c0.3,0,0.3,0.3,0.3,1.5c0,1.4,0,2.7,0,4.6
	c0,3.2,0.5,4,1.7,4c1.8,0,1.6-3.1,1.6-4.8C85.7-53.6,85.7-56.1,85.7-58.5z"/>
<path id="_x32_32-male_3_" fill-rule="evenodd" clip-rule="evenodd" fill="#BEC3C8" d="M104.7-65.2c2.4,0,4.8-2.3,4.8-4.7
	c0-2.4-2.3-4.8-4.7-4.8c-2.4,0-4.8,2.5-4.8,4.9C100-67.4,102.3-65.2,104.7-65.2z M114.1-58.5c0-2.4,0.2-2.1,0-3.6
	c-0.6-1.8-1.8-2.4-3-2.4c-2.6,0-3.4,0-5.4,0c-2.4,0-3.6,0-6,0c-1.2,0-2-0.1-2.9,0.7c-1.2,1.4-1.1,1.5-1.1,5.3c0,1.9,0,5.2,0,7.3
	c0,1.9-0.3,4.8,1.6,4.8c1.8,0,1.8-1.3,1.8-3.2c0-2.7,0-3.4,0-5c0-1.7-0.1-2,0.3-2c0.4,0,0.4,0,0.4,1.9c0,1.7,0,25.9,0,27.3
	c0,1.2,0.6,2.5,2.4,2.5c1.8,0,2.6-1.1,2.6-2.3c0-2.2,0-11.6,0-12.6c0-1.2,0-1.8,0.3-1.8c0.3,0,0.3,0.6,0.3,1.8c0,1.1,0,10.4,0,12.6
	c0,0.7,0.8,2.4,2.6,2.4c1.2,0,2.3-1.5,2.3-2.3c0-4.8,0-26.2,0-27.7c0-0.8-0.1-1.9,0.2-1.9c0.3,0,0.3,0.3,0.3,1.5c0,1.4,0,2.7,0,4.6
	c0,3.2,0.5,4,1.7,4c1.8,0,1.6-3.1,1.6-4.8C114.1-53.6,114.1-56.1,114.1-58.5z"/>
<path id="_x32_32-male_4_" fill-rule="evenodd" clip-rule="evenodd" fill="#7F4996" d="M133.1-65.2c2.4,0,4.8-2.3,4.8-4.7
	c0-2.4-2.3-4.8-4.7-4.8c-2.4,0-4.8,2.5-4.8,4.9C128.4-67.4,130.7-65.2,133.1-65.2z M142.5-58.5c0-2.4,0.2-2.1,0-3.6
	c-0.6-1.8-1.8-2.4-3-2.4c-2.6,0-3.4,0-5.4,0c-2.4,0-3.6,0-6,0c-1.2,0-2-0.1-2.9,0.7c-1.2,1.4-1.1,1.5-1.1,5.3c0,1.9,0,5.2,0,7.3
	c0,1.9-0.3,4.8,1.6,4.8c1.8,0,1.8-1.3,1.8-3.2c0-2.7,0-3.4,0-5c0-1.7-0.1-2,0.3-2c0.4,0,0.4,0,0.4,1.9c0,1.7,0,25.9,0,27.3
	c0,1.2,0.6,2.5,2.4,2.5c1.8,0,2.6-1.1,2.6-2.3c0-2.2,0-11.6,0-12.6c0-1.2,0-1.8,0.3-1.8c0.3,0,0.3,0.6,0.3,1.8c0,1.1,0,10.4,0,12.6
	c0,0.7,0.8,2.4,2.6,2.4c1.2,0,2.3-1.5,2.3-2.3c0-4.8,0-26.2,0-27.7c0-0.8-0.1-1.9,0.2-1.9c0.3,0,0.3,0.3,0.3,1.5c0,1.4,0,2.7,0,4.6
	c0,3.2,0.5,4,1.7,4c1.8,0,1.6-3.1,1.6-4.8C142.5-53.6,142.5-56.1,142.5-58.5z"/>
<text transform="matrix(1 5.993892e-03 -5.993892e-03 1 195.6832 -39.2189)" fill="#7F4996" font-family="'FiraMono'" font-size="11.2361"> 1.000.000.000 €</text>
<g id="Capa_12">
	<path id="_x33_16-mobile_phone" fill-rule="evenodd" clip-rule="evenodd" fill="#BEC3C8" d="M188.7-51.3l-8.5,2.9l-1.3-3.7
		c0,0-0.4-1-1.3-0.7c0,0-0.9,0.4-0.6,1.3c0,0,1.2,3.3,1.5,4.4c-0.4,0.7-0.5,1.6-0.2,2.4l6.1,18.1c0.5,1.6,2.2,2.4,3.8,1.9l8.5-2.9
		c1.6-0.5,2.4-2.2,1.9-3.8l-6-18C192-51,190.3-51.8,188.7-51.3z M189.4-27.3l-2.8,1l-0.6-1.9l2.8-1L189.4-27.3z M188.4-30.1l-2.8,1
		l-0.6-1.9l2.8-1L188.4-30.1z M187.5-33l-2.8,1l-0.6-1.9l2.8-1L187.5-33z M186.5-35.8l-2.8,1l-0.6-1.9l2.8-1L186.5-35.8z
		 M193.2-28.6l-2.8,1l-0.6-1.9l2.8-1L193.2-28.6z M192.2-31.4l-2.8,1l-0.6-1.9l2.8-1L192.2-31.4z M191.3-34.2l-2.8,1l-0.6-1.9l2.8-1
		L191.3-34.2z M190.3-37.1l-2.8,1l-0.6-1.9l2.8-1L190.3-37.1z M197-29.8l-2.8,1l-0.6-1.9l2.8-1L197-29.8z M196-32.7l-2.8,1l-0.6-1.9
		l2.8-1L196-32.7z M195.1-35.5l-2.8,1l-0.6-1.9l2.8-1L195.1-35.5z M194.1-38.3l-2.8,1l-0.6-1.9l2.8-1L194.1-38.3z M192.5-43.1
		c0.2,0.5-0.1,1.1-0.6,1.3l-8.5,2.9c-0.5,0.2-1.1-0.1-1.3-0.6l-1.9-5.7c-0.2-0.5,0.1-1.1,0.6-1.3l8.5-2.9c0.5-0.2,1.1,0.1,1.3,0.6
		L192.5-43.1z"/>
</g>
<path id="_x33_27-chat_bubble" fill-rule="evenodd" clip-rule="evenodd" fill="#7F4996" d="M316.1,30.1c3.4,0,6.2-2.8,6.2-6.2V13.7
	c0-3.4-2.8-6.2-6.2-6.2h-20.6c-3.4,0-6.2,2.8-6.2,6.2v10.1c0,3.4,2.8,6.2,6.2,6.2h0.5l0.1,9.2l10.3-9.2H316.1z"/>
<path fill-rule="evenodd" clip-rule="evenodd" fill="#BEC3C8" d="M324.3,13.7l-0.1,11.6c0,0-0.2,6.3-7,6.3h-9.5l-4.2,4.4l7,0.1
	l9.6,9.9l0.3-10.1c0,0,7.5,0.5,7.5-6.1c0-6.6,0-9.8,0-9.8S328.2,15.9,324.3,13.7z"/>
<g>
	<g>
		<path fill-rule="evenodd" clip-rule="evenodd" fill="#BEC3C8" d="M299.5,22.4c0-0.4,0.1-0.7,0.4-1c0.3-0.3,0.6-0.4,1-0.4
			c0.2,0,0.4,0,0.5,0.1c0.2,0.1,0.3,0.2,0.4,0.3c0.1,0.1,0.2,0.3,0.3,0.4c0.1,0.2,0.1,0.3,0.1,0.5c0,0.2,0,0.4-0.1,0.5
			c-0.1,0.2-0.2,0.3-0.3,0.4c-0.1,0.1-0.3,0.2-0.4,0.3c-0.2,0.1-0.3,0.1-0.5,0.1c-0.4,0-0.7-0.1-1-0.4
			C299.6,23.1,299.5,22.7,299.5,22.4z M299.9,19.6l-0.3-6.5h2.5l-0.3,6.5H299.9z"/>
	</g>
	<g>
		<path fill-rule="evenodd" clip-rule="evenodd" fill="#BEC3C8" d="M304.9,22.4c0-0.4,0.1-0.7,0.4-1c0.3-0.3,0.6-0.4,1-0.4
			c0.2,0,0.4,0,0.5,0.1c0.2,0.1,0.3,0.2,0.4,0.3c0.1,0.1,0.2,0.3,0.3,0.4c0.1,0.2,0.1,0.3,0.1,0.5c0,0.2,0,0.4-0.1,0.5
			c-0.1,0.2-0.2,0.3-0.3,0.4c-0.1,0.1-0.3,0.2-0.4,0.3c-0.2,0.1-0.3,0.1-0.5,0.1c-0.4,0-0.7-0.1-1-0.4
			C305,23.1,304.9,22.7,304.9,22.4z M305.3,19.6l-0.3-6.5h2.5l-0.3,6.5H305.3z"/>
	</g>
	<g>
		<path fill-rule="evenodd" clip-rule="evenodd" fill="#BEC3C8" d="M310.3,22.4c0-0.4,0.1-0.7,0.4-1c0.3-0.3,0.6-0.4,1-0.4
			c0.2,0,0.4,0,0.5,0.1c0.2,0.1,0.3,0.2,0.4,0.3c0.1,0.1,0.2,0.3,0.3,0.4c0.1,0.2,0.1,0.3,0.1,0.5c0,0.2,0,0.4-0.1,0.5
			c-0.1,0.2-0.2,0.3-0.3,0.4c-0.1,0.1-0.3,0.2-0.4,0.3c-0.2,0.1-0.3,0.1-0.5,0.1c-0.4,0-0.7-0.1-1-0.4
			C310.4,23.1,310.3,22.7,310.3,22.4z M310.7,19.6l-0.3-6.5h2.5l-0.3,6.5H310.7z"/>
	</g>
</g>
<line fill="none" stroke="#C3C1B5" stroke-miterlimit="10" x1="-218.3" y1="17.1" x2="-218.1" y2="17.1"/>
<line fill="none" stroke="#C3C1B5" stroke-miterlimit="10" stroke-dasharray="2.0141,3.0212" x1="-217.7" y1="17.1" x2="-168.4" y2="17.1"/>
<line fill="none" stroke="#C3C1B5" stroke-miterlimit="10" x1="-168.2" y1="17.1" x2="-168.1" y2="17.1"/>
<circle fill="#BEC3C8" cx="-215.1" cy="17.1" r="5"/>
<g>
	<text transform="matrix(1 0 0 1 -237.0635 40.7461)" fill="#C3C1B5" font-family="'FiraMono'" font-size="9.5555">italiani</text>
</g>
<circle fill="#7F4996" cx="-163.1" cy="17.1" r="5"/>
<text transform="matrix(1 0 0 1 -187.8375 40.7464)" fill="#C3C1B5" font-family="'FiraMono'" font-size="9.5555">stranieri</text>
<g>
	<rect x="-231.6" y="-90.5" opacity="0.8" fill="#DADADA" width="42.4" height="30"/>
	<rect x="-188.2" y="-90.5" opacity="0.8" fill="#DADADA" width="46.9" height="30"/>
	<path opacity="0.8" fill="#DADADA" d="M-232.6-90.5H-268c-8.3,0-15,6.7-15,15c0,8.3,6.7,15,15,15h35.3V-90.5z"/>
	<path opacity="0.8" fill="#DADADA" d="M-140.3-60.5h30.1c8.3,0,15-6.7,15-15c0-8.3-6.7-15-15-15h-30.1V-60.5z"/>
	<path fill="#7F4996" d="M-264.2-90.5h-11.2c-4.1,0-7.5-3.3-7.5-7.5v22.4h18.7V-90.5z"/>
	<path fill="#7F4996" d="M-268-60.5c-8.3,0-15-6.7-15-15l0,0c0-8.3,6.7-15,15-15h12.5c8.3,0,15,6.7,15,15l0,0c0,8.3-6.7,15-15,15
		H-268z"/>
	<text transform="matrix(1 0 0 1 -273.9049 -71.7017)" fill="#FFFFFF" font-family="'FiraMono'" font-size="14">15%</text>
</g>
<g>
	<rect x="-231.6" y="-139.9" opacity="0.8" fill="#DADADA" width="42.4" height="30"/>
	<rect x="-188.2" y="-139.9" opacity="0.8" fill="#DADADA" width="46.9" height="30"/>
	<path opacity="0.8" fill="#DADADA" d="M-232.6-139.9H-268c-8.3,0-15,6.7-15,15c0,8.3,6.7,15,15,15h35.3V-139.9z"/>
	<path opacity="0.8" fill="#DADADA" d="M-140.3-109.9h30.1c8.3,0,15-6.7,15-15c0-8.3-6.7-15-15-15h-30.1V-109.9z"/>
	<path fill="#BEC3C8" d="M-275.5-109.9h11.2v-15H-283v22.5C-283-106.6-279.6-109.9-275.5-109.9z"/>
	<path fill="#BEC3C8" d="M-268-109.9c-8.3,0-15-6.7-15-15l0,0c0-8.3,6.7-15,15-15h-0.2c8.3,0,15,6.7,15,15l0,0c0,8.3-6.7,15-15,15
		H-268z"/>
	<text transform="matrix(1 0 0 1 -276.1414 -119.4884)" fill="#303030" font-family="'FiraMono'" font-size="14">8%</text>
</g>
<g>
	<g>
		<path fill="#7F4996" d="M289.4,194.7v-31c-27,0-51.6,13.3-66,36.4l26.5,16.4C258.4,202.7,273.4,194.7,289.4,194.7z"/>
		<path fill="#BEC3C8" d="M289.4,163.7v31c25,0,46.1,20.8,46.1,46.5c0,25.7-21,46.5-46.6,46.5c-25.7,0-46.6-20.8-46.6-46.5
			c0-9.3,2.1-16.7,7-24.6L223,200.1c-8.2,13.2-11.8,25.5-11.8,41c0,42.8,34.7,77.4,77.4,77.4c42.8,0,77.8-34.7,77.8-77.4
			S332.4,163.7,289.4,163.7z"/>
	</g>
	<g>
		<line fill="none" stroke="#3C3C3B" stroke-miterlimit="10" x1="362.7" y1="211.4" x2="401.7" y2="211.4"/>
		<circle fill="#3C3C3B" cx="401.5" cy="211.4" r="2"/>
	</g>
	<g>
		<line fill="none" stroke="#3C3C3B" stroke-miterlimit="10" x1="205" y1="177.1" x2="243.9" y2="177.1"/>
		<circle fill="#3C3C3B" cx="205.1" cy="177.1" r="2"/>
	</g>
	<text transform="matrix(1 0 0 1 158.9275 179.2217)" font-family="'FiraMono'" font-size="14">15,9%</text>
	<text transform="matrix(1 0 0 1 405.36 213.055)" font-family="'FiraMono'" font-size="14">84,1%</text>
	<text transform="matrix(1 0 0 1 257.7728 231.2032)"><tspan x="0" y="0" font-family="'FiraMono'" font-size="12">INFORTUNI</tspan><tspan x="-6.9" y="12" font-family="'FiraMono'" font-size="12">SUL LAVORO </tspan><tspan x="3.4" y="24" font-family="'FiraMono'" font-size="12">NEL 2012</tspan></text>
	<path id="_x31_422-luggage_bag" fill="#BEC3C8" d="M-215.9,187.1c-2.5,0-4.4,2-4.4,4.4c0,2.4,2,4.4,4.4,4.4c2.5,0,4.4-2,4.4-4.4
		C-211.4,189.1-213.4,187.1-215.9,187.1z M-210,117.4h13.6v9.5c1.2,0.1,2.3,0.2,3.5,0.4v-9.9v-6.5h-3.5H-210h-3.5v6.5v9.8
		c1-0.1,2.2-0.3,3.5-0.4V117.4z M-190.6,187.1c-2.5,0-4.4,2-4.4,4.4c0,2.4,2,4.4,4.4,4.4c2.5,0,4.4-2,4.4-4.4
		C-186.2,189.1-188.2,187.1-190.6,187.1z M-198.5,129.5h-9.5c-10.1,0-18.4,8.2-18.4,18.4v19.3c0,10.1,8.2,18.4,18.4,18.4h9.5
		c10.1,0,18.4-8.2,18.4-18.4v-19.3C-180.1,137.7-188.3,129.5-198.5,129.5z M-215,171h-3.4v-30.3h3.4V171z M-201.5,171h-3.4v-30.3
		h3.4V171z M-188.1,171h-3.4v-30.3h3.4V171z"/>
	<path id="_x35_03-up_arrow" fill="#7F4996" d="M-133.1,149.5l-10-10c-1.5-1.5-3.8-1.5-5.3,0l-10.7,10.7c-1.5,1.5-1.5,3.8,0,5.3
		c0.7,0.7,1.7,1.1,2.6,1.1c1,0,1.9-0.4,2.6-1.1l3.9-3.9v13.2c0,2.1,1.7,3.7,3.7,3.7c2.1,0,3.7-1.7,3.7-3.7v-13.8l3.9,3.9
		c1.5,1.5,3.8,1.5,5.3,0C-131.6,153.4-131.6,151-133.1,149.5z"/>
	<path id="_x31_270-knife" fill="#BEC3C8" d="M-86.9,195.9c1.5,0.3,6.2-1.5,3.9-4.7c-2.2-3.2-1.3-3.4,0.3-6.1
		c1.6-2.6,4.3-7.6,2.7-12.7c-1.3-4.7-0.9-7.1,1.5-6.7c2.4,0.4,4.5,0.4,4.5,0.4s2.5,0.2,3.5-3.7c1-3.9,9.1-36.7,4.3-51.5
		c0,0-11.6,2.1-14.4,17.7c-11.4,65-11.4,65-11.4,65S-91.4,195.1-86.9,195.9z M-84.1,168c-1-0.2-1.7-1.1-1.5-2.2
		c0.2-1,1.1-1.7,2.2-1.5c1,0.2,1.7,1.1,1.5,2.2C-82.1,167.5-83.1,168.2-84.1,168z M-86,179c-1-0.2-1.7-1.1-1.5-2.2s1.1-1.7,2.2-1.5
		c1,0.2,1.7,1.1,1.5,2.2S-85,179.2-86,179z M-87.9,189.6c-1-0.2-1.7-1.1-1.5-2.2c0.2-1,1.1-1.7,2.2-1.5c1,0.2,1.7,1.1,1.5,2.2
		C-85.9,189.1-86.9,189.8-87.9,189.6z"/>
	<path id="_x35_02-down_arrow" fill="#7F4996" d="M-43.6,157.3l10,10c1.5,1.5,3.8,1.5,5.3,0l10.7-10.7c1.5-1.5,1.5-3.8,0-5.3
		c-0.7-0.7-1.7-1.1-2.6-1.1c-1,0-1.9,0.4-2.6,1.1l-3.9,3.9v-13.2c0-2.1-1.7-3.7-3.7-3.7c-2.1,0-3.7,1.7-3.7,3.7V156l-3.9-3.9
		c-1.5-1.5-3.8-1.5-5.3,0C-45,153.5-45,155.9-43.6,157.3z"/>
	<path id="_x33_51-call" fill="#00983A" d="M28.9,34.7c0,0-1.2-0.7-2.8,1.3l7.8,4.4c0,0,0.9-2.2-0.1-2.8
		C31.2,36.1,28.9,34.7,28.9,34.7z M21.8,36.6l-2.6-3.4c0,0-2-2.5-4-5.6c-1.4-2.4,0.7-4,0.7-4s-0.8-3.9-1.6-8.8
		c-4.7,1.6-5.3,3.7-5.4,4.4c-0.7,6.6,3.4,14.2,4.7,15.7c7.5,9.1,13.3,9.5,14.2,9.1c2.8-0.5,5.5-2.9,5.5-2.9s0,0-7.6-4.4
		C23,38.3,21.8,36.6,21.8,36.6z M18.9,21.7c0,0-0.8-4.6-1-5.9c-0.2-1.3-2.6-1.1-2.6-1.1l1.4,8.4C18.1,23.5,18.9,21.7,18.9,21.7z"/>
	<text transform="matrix(1 0 0 1 39.36 42.055)" fill="#00983A" font-family="'FiraMono'" font-size="10">NUMERO VERDE UNAR</text>
	<text transform="matrix(1 0 0 1 23.8601 28.5539)"><tspan x="0" y="0" fill="#00983A" font-family="'FiraMono-Bold'" font-size="20.6958">800</tspan><tspan x="35.7" y="0" fill="#00983A" font-family="'FiraMono-Bold'" font-size="10"> </tspan><tspan x="41.4" y="0" fill="#00983A" font-family="'FiraMono-Bold'" font-size="20.6958">90</tspan><tspan x="65.2" y="0" fill="#00983A" font-family="'FiraMono-Bold'" font-size="10"> </tspan><tspan x="71" y="0" fill="#00983A" font-family="'FiraMono-Bold'" font-size="20.6958">10</tspan><tspan x="94.8" y="0" fill="#00983A" font-family="'FiraMono-Bold'" font-size="10"> </tspan><tspan x="100.5" y="0" fill="#00983A" font-family="'FiraMono-Bold'" font-size="20.6958">10</tspan></text>
</g>
<g>
	<text transform="matrix(1 0 0 1 -227.3568 -119.6287)" font-family="'FiraMono'" font-size="9">FAMIGLIE SOLO ITALIANI</text>
</g>
<text transform="matrix(1 0 0 1 -227.3568 -71.4801)" font-family="'FiraMono'" font-size="9">FAMIGLIE CON STRANIERI</text>
<path id="_x36_65-capsules" fill-rule="evenodd" clip-rule="evenodd" fill="#BEC3C8" d="M60.4,117.9c-3.2-0.6-6.4,1.5-7,4.8l-2.8,15
	c-0.6,3.2,1.5,6.4,4.8,7c3.2,0.6,6.4-1.5,7-4.8l2.8-15C65.8,121.6,63.7,118.5,60.4,117.9z M63.9,124.6l-1.4,7.5l-9.2-1.7l1.4-7.5
	c0.5-2.5,2.9-4.2,5.5-3.7C62.7,119.7,64.4,122.1,63.9,124.6z"/>
<path id="_x36_65-capsules_1_" fill-rule="evenodd" clip-rule="evenodd" fill="#7F4996" d="M47.1,113.4c-0.7-3.2-3.8-5.3-7-4.7
	c-3.2,0.7-5.3,3.8-4.7,7l3,14.9c0.7,3.2,3.8,5.3,7,4.7c3.2-0.7,5.3-3.8,4.7-7L47.1,113.4z M38.2,123l-1.5-7.5
	c-0.5-2.5,1.1-5,3.7-5.5c2.5-0.5,5,1.1,5.5,3.7l1.5,7.5L38.2,123z"/>
</svg>
